<?xml version="1.0" encoding="utf-8"?>
<!-- Generator: Adobe Illustrator 22.1.0, SVG Export Plug-In . SVG Version: 6.00 Build 0)  -->
<svg version="1.1" id="Camada_1" xmlns="http://www.w3.org/2000/svg" xmlns:xlink="http://www.w3.org/1999/xlink" x="0px" y="0px"
	 viewBox="0 0 50 50" style="enable-background:new 0 0 50 50;" xml:space="preserve">
<style type="text/css">
	.st0{fill:#FFFFFF;}
</style>
<path class="st0" d="M25,0C11.2,0,0,11.2,0,25c0,11.9,8.4,21.9,19.6,24.4V30.7h-4.1v-6h4.1v-2.1c0-2.3,0.3-4.2,0.8-5.3
	c0.5-1.2,1.4-2,2.8-2.8c1.4-0.8,3.1-1.1,5.2-1.1c2.1,0,4.2,0.2,6.2,0.9l-1,5.2c-1.1-0.4-2.4-0.5-3.4-0.5c-1.1,0-1.9,0.3-2.3,0.8
	c-0.5,0.5-0.7,1.4-0.8,2.9v1.9h5.5v6h-5.5V50c0,0,0.1,0,0.1,0C39.9,48.9,50,38.1,50,25C50,11.2,38.8,0,25,0z"/>
<path class="st0" d="M19.6,49.4L19.6,49.4c1.7,0.5,3.5,0.7,5.4,0.7c0.7,0,1.4,0,2.1-0.1v-0.1C26.4,50,25.7,50,25,50
	C23.1,50,21.3,49.8,19.6,49.4z"/>
</svg>
