<?xml version="1.0" encoding="utf-8"?>
<!-- Generator: Adobe Illustrator 22.1.0, SVG Export Plug-In . SVG Version: 6.00 Build 0)  -->
<svg version="1.1" id="Camada_1" xmlns="http://www.w3.org/2000/svg" xmlns:xlink="http://www.w3.org/1999/xlink" x="0px" y="0px"
	 viewBox="0 0 50 50" style="enable-background:new 0 0 50 50;" xml:space="preserve">
<style type="text/css">
	.st0{fill:#FFFFFF;}
</style>
<path class="st0" d="M33.5,22.8c-0.4,0-0.5,0.1-0.4,0.6c0.3,1.3,0.1,2.6-0.2,3.9c-1.2,4.1-5.4,6.6-9.6,5.8c-4.1-0.8-7-4.8-6.5-9
	c0.2-1.2,0.1-1.1-1.1-1.2c-0.8,0-1.1,0.2-1.1,1.1c0,3.3,0,6.6,0,9.8c0,1.2,0.4,1.6,1.6,1.6c3,0,5.9,0,8.8,0s5.9,0,8.8,0
	c1.3,0,1.6-0.3,1.6-1.6c0-3.1,0-6.1,0-9.3C35.4,22.6,35.4,22.7,33.5,22.8z"/>
<path class="st0" d="M24.9,30.2c2.9,0.1,5.3-2.3,5.3-5.2c0-2.8-2.4-5.2-5.2-5.2s-5.2,2.3-5.3,5.1C19.7,27.8,22.1,30.1,24.9,30.2z"/>
<path class="st0" d="M32.7,14.6c-2.6,0-2.6,0-2.5,2.7c0,2.6,0,2.6,2.6,2.6c2.6,0,2.6,0,2.6-2.6C35.4,14.6,35.4,14.6,32.7,14.6z"/>
<path class="st0" d="M25,0.1C11.3,0.1,0.1,11.2,0.1,25S11.3,49.9,25,49.9c13.8,0,24.9-11.1,24.9-24.9S38.8,0.1,25,0.1z M38.5,34.8
	c0,2.3-1.3,3.6-3.6,3.6c-6.6,0-13.2,0-19.9,0c-2.2,0-3.5-1.2-3.5-3.5c0-3.3,0-6.6,0-9.9s0-6.5,0-9.8c0-2.4,1.2-3.6,3.6-3.6
	c6.6,0,13.2,0,19.8,0c2.3,0,3.6,1.2,3.6,3.4C38.5,21.6,38.5,28.2,38.5,34.8z"/>
</svg>
